<?xml version="1.0" encoding="UTF-8"?><svg id="Capa_1" xmlns="http://www.w3.org/2000/svg" viewBox="0 0 92.5 90.5"><defs><style>.cls-1{fill:#f36;}.cls-2{fill:#49021f;}</style></defs><path class="cls-2" d="M16.38.16h59.74c9.06,0,16.38,7.32,16.38,16.38v57.43c0,9.06-7.32,16.38-16.38,16.38H16.38c-9.06,0-16.38-7.32-16.38-16.38V16.54C0,7.48,7.32.16,16.38.16Z"/><g id="vlpa"><g id="vlpb"><path class="cls-1" d="M33.61,23.74v39.7c0,.42-.19.62-.54.62h-7.55c-.35,0-.5-.19-.5-.62V23.74c0-.35.19-.5.54-.5h7.52c.23-.04.46.12.5.39.04.04.04.08.04.12Z"/><path class="cls-1" d="M55.89,64.52c-2.85.04-5.7-.54-8.29-1.73-2.43-1.12-4.43-2.97-5.82-5.24-1.43-2.35-2.12-5.28-2.12-8.79-.04-2.85.69-5.67,2.12-8.13,1.46-2.51,3.58-4.59,6.13-5.97,2.7-1.5,5.94-2.24,9.75-2.24.19,0,.46,0,.81.04s.73.04,1.19.08v-12.18c0-.27.12-.42.39-.42h7.82c.19-.04.35.12.39.27v36.77c0,.69.04,1.46.08,2.31.08.81.12,1.58.15,2.24,0,.27-.12.5-.39.62-2,.85-4.12,1.46-6.28,1.85-1.93.35-3.93.54-5.94.54h0ZM59.66,56.81v-16.96c-.35-.08-.69-.15-1.04-.19-.42-.04-.85-.08-1.27-.08-1.5,0-3.01.31-4.36,1-1.31.66-2.43,1.62-3.28,2.85s-1.27,2.89-1.27,4.89c-.04,1.35.19,2.7.66,3.97.39,1.04.96,1.97,1.73,2.74.73.69,1.62,1.23,2.62,1.54,1.04.35,2.12.5,3.2.5.58,0,1.12-.04,1.62-.08.5.04.96-.04,1.39-.19h0Z"/></g></g></svg>