<?xml version="1.0" encoding="UTF-8"?><svg id="Capa_1" xmlns="http://www.w3.org/2000/svg" viewBox="0 0 92.5 90.5"><defs><style>.cls-1{fill:#001e36;}.cls-2{fill:#31a8ff;}</style></defs><path class="cls-1" d="M16.61.5h59.28c8.99,0,16.26,7.27,16.26,16.26v56.99c0,8.99-7.27,16.26-16.26,16.26H16.61c-8.99,0-16.26-7.27-16.26-16.26V16.76C.35,7.77,7.62.5,16.61.5Z"/><path class="cls-2" d="M48.54,63.76h-24.25c-.42,0-.61-.23-.61-.69V23.98c-.04-.27.15-.5.42-.54h7.65c.19-.04.42.11.42.31v32.24h17.67c.38,0,.5.19.42.54l-1.11,6.66c0,.19-.11.34-.23.46-.11.08-.23.11-.38.11h0Z"/><path class="cls-2" d="M54.66,33.16h6.69c.38,0,.69.27.8.61.15.27.27.57.31.88.08.38.15.8.19,1.19.04.42.08.88.08,1.38,1.15-1.34,2.52-2.45,4.09-3.29,1.76-.96,3.71-1.42,5.7-1.38.27-.04.5.15.54.42v7.61c0,.31-.19.42-.61.42-2.49-.15-4.97.31-7.23,1.3-.76.34-1.49.8-2.07,1.42v19.51c0,.38-.15.54-.5.54h-7.46c-.31.04-.57-.15-.61-.46v-21.34c0-.92,0-1.87-.04-2.87s-.04-1.99-.08-2.98c-.04-.84-.11-1.68-.23-2.52-.04-.19.08-.38.27-.42.04-.04.08-.04.15,0h0Z"/></svg>