<?xml version="1.0" encoding="UTF-8"?><svg id="Capa_1" xmlns="http://www.w3.org/2000/svg" viewBox="0 0 92.5 90.5"><defs><style>.cls-1{fill:#99f;}.cls-2{fill:#00005b;}</style></defs><path class="cls-2" d="M16.38.16h59.74c9.06,0,16.38,7.32,16.38,16.38v57.43c0,9.06-7.32,16.38-16.38,16.38H16.38C7.32,90.34,0,83.02,0,73.96V16.54C0,7.48,7.32.16,16.38.16Z"/><path class="cls-1" d="M37.15,54.11h-14.34l-2.93,9.1c-.08.35-.39.58-.73.54h-7.25c-.42,0-.54-.23-.42-.69l12.41-35.57c.12-.39.23-.73.39-1.19.15-.81.23-1.66.23-2.51-.04-.19.12-.39.31-.42h9.98c.27,0,.46.12.5.31l14.07,39.31c.12.42,0,.62-.39.62h-8.06c-.27.04-.54-.15-.62-.42l-3.16-9.25v.19h0ZM25.05,46.44h9.79c-.23-.81-.54-1.77-.89-2.77-.35-1.04-.69-2.16-1.04-3.31-.39-1.19-.73-2.35-1.12-3.55s-.73-2.31-1.04-3.43c-.31-1.08-.58-2.08-.85-3.01h-.08c-.35,1.66-.77,3.31-1.31,4.97-.58,1.85-1.16,3.78-1.77,5.7-.5,1.97-1.12,3.78-1.7,5.4h0ZM72.07,50.65h-12.22c.15,1.19.54,2.39,1.19,3.43.69,1.04,1.66,1.85,2.81,2.31,1.54.66,3.24,1,4.93.96,1.35-.04,2.7-.15,4.01-.42,1.19-.15,2.35-.46,3.43-.89.19-.15.31-.08.31.31v5.9c0,.15-.04.31-.08.46-.08.12-.15.19-.27.27-1.23.54-2.51.93-3.85,1.16-1.81.35-3.62.5-5.47.46-2.93,0-5.4-.46-7.4-1.35-1.89-.81-3.55-2.08-4.86-3.66-1.23-1.5-2.12-3.2-2.66-5.05-.54-1.81-.81-3.7-.81-5.63,0-2.08.31-4.12.96-6.13.62-1.93,1.58-3.7,2.89-5.28,1.27-1.54,2.85-2.77,4.66-3.66s3.97-1.19,6.44-1.19c2.04-.04,4.09.35,5.97,1.19,1.58.69,2.97,1.73,4.05,3.08,1,1.31,1.81,2.78,2.31,4.39.5,1.54.73,3.12.73,4.7,0,.93-.04,1.73-.08,2.47-.08.73-.12,1.27-.15,1.62-.04.27-.27.5-.54.5-.23,0-.66.04-1.27.08-.62.08-1.35.12-2.24.12s-1.81-.15-2.81-.15h0ZM59.86,45.02h8.13c1,0,1.73,0,2.2-.04.31-.04.62-.12.89-.31v-.39c0-.5-.08-.96-.23-1.43-.69-2.16-2.74-3.62-5.01-3.55-2.12-.12-4.12,1-5.13,2.93-.46.89-.73,1.81-.85,2.77h0Z"/></svg>