<?xml version="1.0" encoding="UTF-8"?><svg id="Capa_1" xmlns="http://www.w3.org/2000/svg" viewBox="0 0 92.5 90.5"><defs><style>.cls-1{fill:#470137;}.cls-2{fill:#ff61f6;}</style></defs><path class="cls-1" d="M16.54.4h59.42c9.01,0,16.29,7.28,16.29,16.29v57.12c0,9.01-7.28,16.29-16.29,16.29H16.54c-9.01,0-16.29-7.28-16.29-16.29V16.69C.25,7.68,7.53.4,16.54.4Z"/><path class="cls-2" d="M48.63,23.98l-11.5,18.97,12.27,20.12c.08.15.12.31.08.46s-.19.04-.42.08h-8.78c-.61,0-1.03-.04-1.3-.42-.8-1.61-1.65-3.18-2.45-4.79-.8-1.57-1.69-3.18-2.61-4.83s-1.84-3.3-2.76-4.98h-.08c-.8,1.65-1.69,3.3-2.57,4.94s-1.76,3.3-2.61,4.91c-.88,1.61-1.76,3.26-2.65,4.83-.15.38-.46.42-.88.42h-8.43c-.15,0-.27.08-.27-.12-.04-.15,0-.31.08-.42l11.92-19.55-11.61-19.66c-.11-.15-.15-.31-.08-.38.08-.11.23-.15.38-.15h8.7c.19,0,.38.04.54.08.15.08.27.19.38.35.73,1.65,1.57,3.3,2.45,4.94.92,1.65,1.8,3.26,2.76,4.87.92,1.61,1.76,3.22,2.57,4.87h.08c.8-1.69,1.65-3.33,2.49-4.95s1.73-3.22,2.61-4.83,1.73-3.26,2.57-4.83c.04-.15.12-.31.23-.38.15-.08.31-.11.5-.08h8.09c.19-.04.38.08.42.27.04.04-.04.19-.12.27h0ZM66.34,64.42c-2.84.04-5.67-.54-8.24-1.73-2.42-1.11-4.41-2.95-5.79-5.21-1.42-2.34-2.11-5.25-2.11-8.74-.04-2.84.69-5.63,2.11-8.09,1.46-2.49,3.57-4.56,6.09-5.94,2.68-1.5,5.9-2.22,9.7-2.22.19,0,.46,0,.81.04s.73.04,1.19.08v-12.11c0-.27.12-.42.38-.42h7.78c.19-.04.34.11.38.27v36.57c0,.69.04,1.46.08,2.3.08.81.12,1.57.15,2.22,0,.27-.12.5-.38.61-1.99.84-4.1,1.46-6.25,1.84-1.96.34-3.91.54-5.9.54h0ZM70.09,56.75v-16.87c-.34-.08-.69-.15-1.03-.19-.42-.04-.84-.08-1.27-.08-1.49,0-2.99.31-4.33,1-1.3.65-2.42,1.61-3.26,2.84s-1.27,2.88-1.27,4.87c-.04,1.34.19,2.68.65,3.95.38,1.03.96,1.96,1.73,2.72.73.69,1.61,1.23,2.61,1.53,1.03.34,2.11.5,3.18.5.57,0,1.11-.04,1.61-.08.5.04.92-.04,1.38-.19h0Z"/></svg>