<?xml version="1.0" encoding="UTF-8"?><svg id="Capa_1" xmlns="http://www.w3.org/2000/svg" viewBox="0 0 92.5 90.5"><defs><style>.cls-1{fill:#99f;}.cls-2{fill:#00005b;}</style></defs><path class="cls-2" d="M16.54.4h59.42c9.01,0,16.29,7.28,16.29,16.29v57.12c0,9.01-7.28,16.29-16.29,16.29H16.54c-9.01,0-16.29-7.28-16.29-16.29V16.69C.25,7.68,7.53.4,16.54.4Z"/><path class="cls-1" d="M22.1,63.31V23.86c0-.27.11-.42.38-.42.65,0,1.26,0,2.15-.04.92-.04,1.88-.04,2.91-.08s2.15-.04,3.33-.08,2.34-.04,3.49-.04c3.14,0,5.75.38,7.9,1.19,1.92.65,3.68,1.72,5.14,3.14,1.23,1.23,2.19,2.72,2.8,4.37.58,1.61.88,3.26.88,4.98,0,3.3-.77,6.02-2.3,8.16s-3.68,3.76-6.17,4.68c-2.61.96-5.48,1.3-8.62,1.3-.92,0-1.53,0-1.92-.04s-.92-.04-1.65-.04v12.3c.04.27-.15.5-.42.54h-7.44c-.31,0-.46-.15-.46-.5h0ZM30.46,30.84v12.88c.54.04,1.03.08,1.5.08h2.03c1.5,0,2.99-.23,4.41-.69,1.23-.35,2.3-1.07,3.14-2.03.8-.96,1.19-2.26,1.19-3.95.04-1.19-.27-2.38-.88-3.41-.65-1-1.57-1.76-2.68-2.18-1.42-.57-2.95-.8-4.52-.77-1,0-1.88,0-2.61.04-.77-.04-1.3,0-1.57.04h0Z"/><path class="cls-1" d="M56.45,33.06h6.71c.38,0,.69.27.81.61.12.31.19.61.23.96.08.38.15.8.19,1.19.04.42.08.88.08,1.38,1.15-1.34,2.53-2.45,4.1-3.3,1.76-1,3.79-1.5,5.83-1.5.27-.04.5.15.54.42v7.63c0,.31-.19.42-.61.42-1.38-.04-2.8.08-4.14.38-1.11.23-2.18.58-3.22,1.03-.73.35-1.42.8-1.96,1.42v19.55c0,.38-.15.54-.5.54h-7.55c-.31.04-.58-.15-.61-.46v-21.39c0-.92,0-1.88-.04-2.88s-.04-1.99-.08-2.99c0-.88-.08-1.73-.15-2.61-.04-.19.08-.38.27-.42,0-.04.08-.04.12,0h0Z"/></svg>