<svg xmlns="http://www.w3.org/2000/svg" xmlns:xlink="http://www.w3.org/1999/xlink" viewBox="0 0 285.076 407.627"><defs><clipPath id="a"><rect width="285.076" height="407.627" fill="#fff"/></clipPath></defs><g transform="translate(0 0)" clip-path="url(#a)"><path d="M106.36,407.547l1.6.036a12.385,12.385,0,0,0,.506-24.756l-1.537-.036c-23.162-.566-41.867-16.609-46.547-39.925-2.779-13.855-7.447-27.139-11.961-39.986-1.812-5.149-3.681-10.477-5.364-15.663-5.546-17.1-11.306-34.485-16.269-49.44C22,223.36,23.613,210.76,31.861,198.119c25.893-39.691,52.113-80.1,77.476-119.177q12.311-18.974,24.651-37.972V130.1c-21.621,25.428-34.367,64.026-32.341,99.842a98.883,98.883,0,0,0-26.419,67.359,3.872,3.872,0,0,0,2.055,3.459,3.665,3.665,0,0,0,3.928-.356l23.316-17.94.3,5.485a3.784,3.784,0,0,0,3.742,3.62h68.011a3.687,3.687,0,0,0,2.646-1.129,3.882,3.882,0,0,0,1.088-2.5l.3-5.481,23.312,17.94a3.643,3.643,0,0,0,3.916.174,3.524,3.524,0,0,0,.874-.659,4.394,4.394,0,0,0,1.193-2.977,98.662,98.662,0,0,0-26.419-67.012c2.014-35.888-10.647-74.6-32.353-99.91V40.93c3.75,5.72,7.443,13.139,11.12,18.777Q177.18,82.6,192.076,105.5c19.975,30.7,40.629,62.445,61.057,93.612,8.066,12.3,9.9,24.651,5.6,37.741-2.286,6.978-5.158,15.707-8.256,25.12-24.756,75.231-25.877,79.143-26.212,81.4C220.9,366.076,202,382.305,178.3,382.827l-1.63.036a12.387,12.387,0,0,0,.453,24.76l1.7-.036c35.18-.781,63.4-25.039,69.083-59.18a11.547,11.547,0,0,1,.32-1.428c2.387-8.05,15.954-49.286,25.1-77.076,3.1-9.425,5.979-18.159,8.268-25.144,6.658-20.311,3.734-40.876-8.454-59.471-20.4-31.131-41.046-62.861-61.013-93.543Q197.22,68.839,182.3,45.933c-6.545-10.04-13.126-20.064-20.027-30.577L157.842,8.6A19,19,0,0,0,141.909,0h-.024a18.916,18.916,0,0,0-15.869,8.6l-.1.15Q107.582,36.975,89.265,65.208C63.915,104.276,37.7,144.671,11.822,184.337-.605,203.382-3.251,224.052,3.958,245.766c4.951,14.914,10.7,32.252,16.217,49.274,1.776,5.477,3.7,10.954,5.562,16.245,4.421,12.58,8.6,24.461,11.027,36.576,6.99,34.857,34.958,58.84,69.6,59.686m36.208-228.735a18.879,18.879,0,0,1,18.709,19,19.093,19.093,0,0,1-5.485,13.43,18.507,18.507,0,0,1-13.224,5.574,19.006,19.006,0,0,1,0-38.008" transform="translate(-0.002 0.003)" fill="#fff"/><path d="M30.851,90.782c0,8.042,13.66,31.73,15.214,34.4a2.926,2.926,0,0,0,2.524,1.4,2.983,2.983,0,0,0,2.031-.777,2.78,2.78,0,0,0,.5-.623c1.553-2.67,15.21-26.358,15.21-34.4,0-9.057-7.957-16.427-17.738-16.427S30.855,81.729,30.851,90.782" transform="translate(93.945 226.42)" fill="#fff"/></g></svg>